<?xml version="1.0" encoding="UTF-8" standalone="no"?>
<!-- Created with Inkscape (http://www.inkscape.org/) -->
<svg
   width="1000px"
   height="800px"
   viewBox="0 0 1000 800"
   version="1.1"
   id="SVGRoot"
   xmlns="http://www.w3.org/2000/svg">
  <defs
     id="defs3155" />
  <g>
    <path style="fill:#61dafb"
       d="M 782.16927,0 652.73163,68.55325 485.49001,334.27312 515.8965,382.58583 619.60574,327.65784 716.43164,173.8169 742.37636,262.63844 843.27543,209.19785 783.9442,6.0732272 Z M 225.07939,32.792461 0,390.41316 125.27828,589.46406 222.74151,537.84587 129.95174,390.41316 290.07505,135.99684 225.14221,32.824461 Z M 849.3074,229.84598 748.406,283.28445 l 16.21399,55.5105 H 702.62991 L 637.6575,442.02923 H 794.77529 L 899.0986,799.18687 1000,745.74628 Z M 380.08493,338.79495 315.11257,442.02923 h 88.54432 l 92.74788,-49.12148 -34.05639,-54.1128 z m 217.01425,24.62585 -69.9482,37.04543 23.31604,37.04544 z m -89.43992,47.36947 -105.48881,55.86903 -112.11632,178.1382 -56.05819,-89.06908 -97.46322,51.6182 88.54667,140.68726 97.46322,51.61819 214.92993,-341.49228 z M 942.68342,799.94444 942.57864,800 h 0.10478 z" />
  </g>
</svg>
