<?xml version="1.0" encoding="UTF-8" standalone="no"?>
<!-- Created with Inkscape (http://www.inkscape.org/) -->
<svg
   width="800px"
   height="800px"
   viewBox="0 0 800 800"
   version="1.1"
   id="SVGRoot"
   xmlns="http://www.w3.org/2000/svg">
  <defs
     id="defs3296" />
  <g>
    <rect style="fill:#202528"
       width="800"
       height="800"
       x="0"
       y="0" />
    <path style="fill:#61dafb"
       d="m 597.51852,190 -90.60634,35.99045 -117.06915,139.50294 21.28454,25.36418 72.59648,-28.8372 67.77813,-80.7665 18.16132,46.63131 70.62932,-28.05631 -41.53187,-106.64043 z M 207.55557,207.21604 50,394.96691 137.69479,499.46864 205.91906,472.36909 140.96622,394.96691 253.05254,261.39833 207.59955,207.23284 Z m 436.95964,103.45309 -70.63098,28.0552 11.34982,29.14302 h -43.39309 l -45.48066,54.19799 h 109.98244 l 73.02632,187.50776 70.63098,-28.0563 z m -328.45573,57.19822 -45.48067,54.19799 h 61.98103 l 64.92353,-25.78877 -23.83949,-28.40922 z m 151.90999,12.92857 -48.96376,19.44885 16.32122,19.44885 z m -62.60796,24.86898 -73.84218,29.33123 -78.48143,93.52256 -39.24072,-46.76126 -68.22427,27.09956 61.98267,73.8608 68.22426,27.09954 L 426.2308,430.5339 Z M 709.87843,609.97083 709.80516,610 h 0.0733 z" />
  </g>
</svg>
